<?xml version="1.0" encoding="UTF-8"?>
<svg id="Camada_2" data-name="Camada 2" xmlns="http://www.w3.org/2000/svg" viewBox="0 0 19.49 19.5">
  <defs>
    <style>
      .cls-1 {
        fill: #f3e8dc;
      }
    </style>
  </defs>
  <g id="Camada_1-2" data-name="Camada 1">
    <path class="cls-1" d="M4.42,15.61c-1,.46-2.08.75-3.17.86-.15.02-.29-.06-.36-.19C.08,14.85-.19,13.07.14,11.11c.42-2.52,1.79-5.05,3.85-7.12S8.58.56,11.11.14c2.14-.36,4.07,0,5.56.99.17.11.22.35.11.52-.05.08-.13.14-.22.16-.7.17-1.39.4-2.05.7-2.04.93-4.65,2.91-5.49,7.1-.57,2.84-2.12,4.86-4.59,6h-.01ZM18.6,3.22c-.07-.13-.22-.2-.36-.19-1.1.11-2.17.4-3.17.86-2.48,1.14-4.02,3.16-4.59,6-.84,4.18-3.45,6.17-5.49,7.1-.66.3-1.34.53-2.05.7-.2.05-.33.25-.28.45.02.1.08.18.17.24,1.11.74,2.47,1.12,3.97,1.12.53,0,1.06-.05,1.59-.14,2.52-.42,5.05-1.79,7.12-3.85,2.07-2.06,3.43-4.59,3.85-7.12.32-1.96.06-3.74-.75-5.17h-.01Z"/>
  </g>
</svg>